<mxfile host="drawio-plugin" modified="2022-05-19T09:08:08.189Z" agent="5.0 (Windows NT 6.2; Win64; x64) AppleWebKit/537.36 (KHTML, like Gecko) Chrome/89.0.4389.114 Safari/537.36" etag="bYGFZUIKpyoZBrXdK32j" version="15.5.4" type="embed" pages="2"><diagram id="N1W1Y5ectTIntLD4AcZx" name="Homepage"><mxGraphModel dx="1179" dy="616" grid="1" gridSize="10" guides="1" tooltips="1" connect="1" arrows="1" fold="1" page="1" pageScale="1" pageWidth="827" pageHeight="1169" background="#F1FAEE" math="0" shadow="0"><root><mxCell id="0"/><mxCell id="1" parent="0"/><mxCell id="Pu7G0L3WyXcyrQ7NVIrJ-1" value="" style="whiteSpace=wrap;html=1;rounded=0;shadow=0;labelBackgroundColor=none;strokeColor=#457B9D;strokeWidth=1;fillColor=none;fontFamily=Verdana;fontSize=12;fontColor=#1D3557;align=center;comic=1;" parent="1" vertex="1"><mxGeometry x="20" y="80" width="1060" height="750" as="geometry"/></mxCell><mxCell id="1CWAUIRQ8vxsbGQyfzS9-1" value="Search" style="strokeWidth=1;shadow=0;dashed=0;align=center;html=1;shape=mxgraph.mockup.forms.searchBox;strokeColor=#457B9D;mainText=;strokeColor2=#008cff;fontColor=#1D3557;fontSize=17;align=left;spacingLeft=3;rounded=0;fillColor=#A8DADC;" parent="1" vertex="1"><mxGeometry x="40" y="99.25" width="780" height="34.5" as="geometry"/></mxCell><mxCell id="1CWAUIRQ8vxsbGQyfzS9-2" value="Sign in" style="dashed=0;align=center;fontSize=12;shape=rect;fillColor=#A8DADC;strokeColor=none;fontStyle=1;shadow=1;fontColor=#1D3557;rounded=0;" parent="1" vertex="1"><mxGeometry x="840" y="99.25" width="100" height="36" as="geometry"/></mxCell><mxCell id="1CWAUIRQ8vxsbGQyfzS9-5" value="Sign up" style="dashed=0;align=center;fontSize=12;shape=rect;fillColor=#A8DADC;strokeColor=none;fontStyle=1;shadow=1;rounded=0;fontColor=#1D3557;" parent="1" vertex="1"><mxGeometry x="960" y="99.25" width="100" height="36" as="geometry"/></mxCell><mxCell id="1CWAUIRQ8vxsbGQyfzS9-9" value="" style="verticalLabelPosition=bottom;shadow=0;dashed=0;align=center;html=1;verticalAlign=top;strokeWidth=1;shape=mxgraph.mockup.graphics.simpleIcon;strokeColor=#457B9D;rounded=0;fillColor=#A8DADC;fontColor=#1D3557;" parent="1" vertex="1"><mxGeometry x="40" y="160" width="560" height="280" as="geometry"/></mxCell><mxCell id="1CWAUIRQ8vxsbGQyfzS9-10" value="" style="verticalLabelPosition=bottom;shadow=0;dashed=0;align=center;html=1;verticalAlign=top;strokeWidth=1;shape=mxgraph.mockup.graphics.simpleIcon;strokeColor=#457B9D;rounded=0;fillColor=#A8DADC;fontColor=#1D3557;" parent="1" vertex="1"><mxGeometry x="480" y="480" width="560" height="320" as="geometry"/></mxCell></root></mxGraphModel></diagram><diagram name="Sign in" id="J8rU8N_o9diP7Kcww0tM"><mxGraphModel dx="1179" dy="616" grid="1" gridSize="10" guides="1" tooltips="1" connect="1" arrows="1" fold="1" page="1" pageScale="1" pageWidth="827" pageHeight="1169" background="#F1FAEE" math="0" shadow="0"><root><mxCell id="ZK5jDJ6Kn3SsJb9PW3Yr-0"/><mxCell id="ZK5jDJ6Kn3SsJb9PW3Yr-1" parent="ZK5jDJ6Kn3SsJb9PW3Yr-0"/><mxCell id="ZK5jDJ6Kn3SsJb9PW3Yr-2" value="" style="whiteSpace=wrap;html=1;rounded=0;shadow=0;labelBackgroundColor=none;strokeColor=#457B9D;strokeWidth=1;fillColor=none;fontFamily=Verdana;fontSize=12;fontColor=#1D3557;align=center;comic=1;" vertex="1" parent="ZK5jDJ6Kn3SsJb9PW3Yr-1"><mxGeometry x="20" y="80" width="1060" height="750" as="geometry"/></mxCell><mxCell id="ZK5jDJ6Kn3SsJb9PW3Yr-4" value="Home" style="dashed=0;align=center;fontSize=12;shape=rect;fillColor=#A8DADC;strokeColor=none;fontStyle=1;shadow=1;fontColor=#1D3557;rounded=0;" vertex="1" parent="ZK5jDJ6Kn3SsJb9PW3Yr-1"><mxGeometry x="840" y="99.25" width="100" height="36" as="geometry"/></mxCell><mxCell id="ZK5jDJ6Kn3SsJb9PW3Yr-5" value="Sign up" style="dashed=0;align=center;fontSize=12;shape=rect;fillColor=#A8DADC;strokeColor=none;fontStyle=1;shadow=1;rounded=0;fontColor=#1D3557;" vertex="1" parent="ZK5jDJ6Kn3SsJb9PW3Yr-1"><mxGeometry x="960" y="99.25" width="100" height="36" as="geometry"/></mxCell></root></mxGraphModel></diagram></mxfile>